<!-- BIOVERSEE LOGO -->
<?xml version="1.0" standalone="no"?>
<!DOCTYPE svg PUBLIC "-//W3C//DTD SVG 20010904//EN"
 "http://www.w3.org/TR/2001/REC-SVG-20010904/DTD/svg10.dtd">
<svg version="1.0" xmlns="http://www.w3.org/2000/svg"
 width="865.000000pt" height="655.000000pt" viewBox="0 0 865.000000 655.000000"
 preserveAspectRatio="xMidYMid meet">

<g transform="translate(0.000000,655.000000) scale(0.100000,-0.100000)"
fill="#000000" stroke="none">
<path d="M1290 6399 c-108 -21 -200 -93 -257 -201 l-28 -53 0 -1830 0 -1830
24 -45 c13 -25 34 -57 48 -71 l24 -26 -25 -17 c-29 -18 -75 -84 -174 -247 -38
-63 -116 -188 -172 -279 -57 -91 -151 -244 -210 -340 -58 -96 -148 -241 -198
-323 -51 -81 -106 -173 -122 -206 l-30 -58 0 -235 c0 -231 0 -235 26 -285 32
-66 89 -117 173 -157 l66 -31 3895 0 3895 0 56 23 c73 29 128 77 164 143 l30
54 0 245 c0 221 -2 248 -19 280 -10 19 -87 145 -171 280 -84 135 -207 335
-275 445 -68 110 -158 256 -200 325 -42 69 -103 169 -134 222 -31 54 -69 111
-83 129 l-26 31 39 75 39 76 3 1786 3 1786 -26 82 c-32 104 -94 177 -193 225
l-67 33 -3015 1 c-1693 1 -3035 -2 -3060 -7z m6042 -125 c20 -3 56 -18 81 -33
55 -36 84 -94 98 -199 6 -51 9 -659 7 -1772 l-3 -1695 -21 -46 c-25 -54 -69
-99 -122 -126 -36 -17 -149 -18 -3032 -21 -3294 -2 -3054 -7 -3133 59 -21 17
-48 50 -60 72 l-22 42 0 1760 c0 1410 3 1768 13 1803 14 46 56 99 106 135 31
22 36 22 461 27 549 7 5578 1 5627 -6z m-92 -3994 c225 -10 226 -11 384 -270
342 -563 357 -587 570 -930 160 -257 166 -274 120 -329 -18 -22 -45 -36 -93
-51 -62 -18 -96 -20 -363 -20 l-294 0 6 -50 6 -50 -3555 2 c-3375 3 -3559 4
-3608 21 -29 10 -65 29 -82 42 -29 25 -29 27 -30 123 0 96 0 97 38 152 21 30
101 159 178 285 77 127 174 284 215 350 41 66 141 228 222 360 81 132 159 257
173 277 30 45 90 74 175 87 72 10 5709 12 5938 1z m1034 -1645 c3 -8 1 -15 -4
-15 -6 0 -10 7 -10 15 0 8 2 15 4 15 2 0 6 -7 10 -15z m-7950 -54 c15 -23 103
-52 188 -61 53 -5 344 -9 668 -8 1144 3 6415 -4 6403 -9 -9 -3 -13 -33 -13
-99 l0 -94 -3568 3 -3567 2 -40 22 c-76 40 -89 63 -95 164 -4 65 -2 89 7 89 6
0 14 -4 17 -9z m7981 -51 c-3 -5 -16 -10 -28 -9 -21 0 -21 1 -2 9 28 12 37 12
30 0z m-592 -27 c-18 -2 -48 -2 -65 0 -18 2 -4 4 32 4 36 0 50 -2 33 -4z m554
-60 c-3 -10 -5 -4 -5 12 0 17 2 24 5 18 2 -7 2 -21 0 -30z m54 -40 c-12 -20
-14 -14 -5 12 4 9 9 14 11 11 3 -2 0 -13 -6 -23z"/>
<path d="M1352 6178 c-52 -9 -94 -37 -122 -83 l-21 -34 1 -1723 1 -1722 22
-40 c13 -23 41 -52 67 -68 l46 -28 2959 -2 c2875 -2 2961 -1 2999 17 24 11 50
36 67 64 l29 45 -2 1748 -3 1748 -35 35 c-25 25 -49 37 -85 44 -60 11 -5859
11 -5923 -1z m5875 -150 c4 -7 6 -139 5 -293 l-2 -280 -152 0 -153 0 -8 60
c-5 33 -11 70 -13 83 -3 13 -33 54 -67 91 -34 38 -77 87 -96 111 -66 83 193
75 -2576 75 l-2470 0 -45 -25 c-24 -14 -59 -44 -77 -68 l-33 -44 0 -661 c-1
-364 -1 -1007 -1 -1428 -1 -661 1 -771 14 -796 23 -43 165 -203 193 -215 13
-6 24 -15 24 -20 0 -4 -82 -8 -182 -8 -197 0 -210 4 -237 57 -8 16 -11 475
-11 1666 0 1635 0 1644 20 1670 11 14 30 28 43 30 12 2 1326 5 2919 6 2308 1
2898 -2 2905 -11z m-2842 -933 l0 -670 -120 -5 c-128 -5 -157 -16 -203 -75
-11 -13 -22 -21 -26 -18 -3 3 -6 177 -6 386 0 419 -1 424 -64 472 -37 28 -256
110 -416 156 -63 19 -118 38 -122 44 -4 5 -8 31 -8 56 0 43 -2 47 -37 62 -21
9 -59 22 -85 28 -47 11 -48 12 -48 50 0 28 -5 41 -19 49 -29 15 -383 13 -404
-2 -9 -7 -17 -31 -19 -52 -3 -39 -3 -40 -63 -53 -90 -21 -105 -34 -105 -94 0
-31 -5 -51 -12 -53 -146 -43 -496 -164 -520 -180 -18 -12 -43 -37 -55 -55
l-23 -34 0 -814 c0 -913 -4 -859 74 -915 57 -40 60 -65 9 -73 -90 -15 -251
-59 -284 -77 -45 -25 -63 -52 -50 -77 32 -58 315 -130 615 -156 55 -5 76 -4
72 4 -5 7 7 9 36 6 369 -43 1178 -24 1515 35 141 25 215 52 248 91 31 38 31
44 -3 78 -33 34 -113 65 -235 91 -51 11 -98 23 -106 25 -8 4 8 25 47 63 52 50
61 65 67 106 4 26 5 62 2 81 -5 33 -5 34 36 40 99 16 157 78 157 169 0 32 5
48 15 52 17 7 22 119 5 129 -6 4 -10 55 -10 121 l0 115 73 -3 72 -3 3 -667 2
-668 -1162 -2 c-640 -1 -1237 -2 -1328 -3 -112 -1 -175 2 -197 11 -67 26 -63
-73 -63 1452 l0 1379 21 27 c12 15 31 32 43 36 11 5 620 8 1351 7 l1330 -2 0
-670z m2251 654 c19 -11 39 -29 44 -39 6 -12 10 -509 10 -1398 l0 -1379 -21
-27 c-12 -15 -33 -32 -48 -37 -36 -14 -2102 -12 -2116 2 -7 7 -10 235 -10 672
0 655 0 662 20 662 11 0 32 -12 47 -27 28 -30 69 -37 89 -15 11 11 22 9 66 -8
29 -12 56 -25 60 -29 14 -14 41 -3 98 39 33 25 66 45 74 45 11 0 13 15 8 80
-4 44 -11 89 -17 100 -6 11 -45 36 -87 56 l-76 37 -53 -29 c-42 -23 -56 -26
-66 -16 -16 16 -79 15 -102 -3 -11 -8 -30 -15 -43 -15 l-23 0 0 675 0 675
1056 0 c1054 0 1057 0 1090 -21z m-3560 -199 l94 0 -1 -27 c-1 -18 -3 -22 -6
-10 -4 15 -14 17 -71 15 -59 -3 -67 -5 -67 -23 0 -18 -7 -20 -65 -20 l-65 0
-3 39 -3 39 47 -7 c26 -3 89 -6 140 -6z m-221 -120 c82 -14 297 -13 361 1 57
13 104 6 104 -14 0 -15 -236 -41 -355 -38 -84 2 -225 21 -225 30 0 13 24 31
40 31 8 0 42 -5 75 -10z m105 -126 l145 -7 80 -66 c44 -37 92 -76 107 -87 15
-10 28 -22 28 -26 0 -12 -528 -9 -660 2 -63 6 -138 13 -167 15 -68 5 -173 26
-173 34 0 6 349 134 395 145 11 2 38 3 60 0 22 -2 105 -7 185 -10z m4178 -64
c3 -85 -7 -100 -67 -100 -78 0 -81 4 -81 90 0 53 4 80 13 84 6 2 39 4 72 3
l60 -2 3 -75z m-3695 39 c45 -17 105 -39 132 -49 135 -49 175 -66 175 -72 0
-19 -98 -7 -150 18 -30 14 -111 48 -180 75 -68 27 -126 52 -129 54 -2 3 12 5
33 5 20 0 74 -14 119 -31z m-1187 -174 c194 -57 735 -97 1039 -76 122 8 132 7
140 -18 6 -21 35 -24 35 -3 0 8 -6 12 -15 8 -9 -3 -15 0 -15 9 0 10 11 15 35
15 34 0 35 -1 29 -27 -4 -16 -12 -31 -18 -35 -14 -9 -102 -16 -288 -22 -121
-4 -158 -3 -158 7 0 8 -3 8 -9 -2 -11 -18 -268 -9 -551 19 -115 12 -308 54
-335 73 -15 12 -15 15 5 40 25 31 38 33 106 12z m1641 -7 c32 -30 29 -48 -7
-48 -17 0 -47 -7 -67 -15 -21 -9 -40 -12 -45 -7 -6 6 8 12 31 16 29 4 41 11
41 22 0 14 -8 16 -57 10 -66 -8 -66 -5 2 22 65 26 74 26 102 0z m3243 -188 c0
-89 -8 -100 -75 -100 -67 0 -75 11 -75 100 l0 80 75 0 75 0 0 -80z m-4852 26
c202 -38 445 -59 712 -60 146 0 320 3 388 7 l123 8 -3 -80 c-2 -77 -9 -98 -21
-67 -3 7 -4 25 -3 40 2 14 -1 23 -5 20 -5 -3 -9 6 -9 20 0 14 -4 26 -9 26 -5
0 -12 8 -14 18 -7 26 -12 -432 -8 -685 l4 -223 -29 0 c-85 0 -178 -90 -189
-184 -6 -43 -12 -56 -32 -67 -24 -13 -25 -17 -20 -72 3 -32 12 -69 21 -82 16
-24 15 -25 -11 -31 -15 -4 -130 -4 -257 0 -127 5 -240 8 -251 8 -28 0 -153 16
-260 34 -119 20 -202 42 -247 67 l-38 21 0 662 0 663 40 -14 c23 -8 75 -21
118 -29z m1642 -466 c0 -280 -2 -510 -4 -510 -2 0 -11 3 -20 6 -14 5 -16 59
-16 498 0 488 2 516 32 516 4 0 8 -229 8 -510z m-422 232 c6 -18 -15 -14 -22
4 -4 10 -1 14 6 12 6 -2 14 -10 16 -16z m-3 -32 c3 -5 1 -10 -4 -10 -6 0 -11
5 -11 10 0 6 2 10 4 10 3 0 8 -4 11 -10z m4 -333 c1 -144 4 -288 7 -319 7 -61
4 -65 -41 -52 -19 5 -20 13 -18 292 2 328 1 320 14 327 5 4 9 16 9 28 1 21 2
21 14 4 11 -13 14 -77 15 -280z m3629 206 c3 -79 2 -83 -21 -88 -13 -4 -46 -5
-73 -3 l-49 3 -3 88 -3 88 73 -3 73 -3 3 -82z m-2380 -154 c-2 -12 -18 -33
-35 -47 l-33 -25 0 26 c0 16 10 34 26 46 34 27 46 27 42 0z m82 5 c51 -21 51
-31 -1 -30 -25 1 -44 -4 -46 -11 -3 -8 4 -13 16 -13 12 0 21 -5 21 -11 0 -6
-9 -8 -20 -4 -16 5 -20 2 -20 -19 0 -30 -16 -42 -34 -27 -17 14 -46 4 -46 -16
0 -8 -4 -11 -10 -8 -22 13 -7 41 35 67 37 23 45 32 45 58 0 35 5 36 60 14z
m-200 -23 c0 -11 -4 -23 -10 -26 -5 -3 -10 -19 -10 -35 0 -16 -4 -32 -10 -35
-6 -4 -10 17 -10 54 0 54 2 61 20 61 13 0 20 -7 20 -19z m-106 -7 c27 -10 18
-33 -16 -39 -18 -3 -64 -5 -103 -3 -64 3 -70 5 -73 26 -3 21 -1 22 86 22 50 0
97 -3 106 -6z m-254 -24 c0 -17 -7 -20 -48 -20 -100 0 -122 -41 -122 -225 0
-125 -2 -136 -17 -133 -16 3 -18 18 -18 149 0 145 0 146 29 183 34 45 75 65
134 66 35 0 42 -3 42 -20z m128 -47 c-10 -2 -28 -2 -40 0 -13 2 -5 4 17 4 22
1 32 -1 23 -4z m2716 1 c13 -5 16 -22 16 -85 0 -88 -8 -99 -75 -99 -68 0 -75
10 -75 105 l0 85 59 0 c33 0 66 -3 75 -6z m-2298 -59 c-21 -16 -63 -19 -93 -7
-12 5 2 9 42 13 33 3 62 6 65 7 3 1 -4 -5 -14 -13z m-689 -152 c-3 -10 -5 -4
-5 12 0 17 2 24 5 18 2 -7 2 -21 0 -30z m-519 -120 c-10 -2 -26 -2 -35 0 -10
3 -2 5 17 5 19 0 27 -2 18 -5z m3510 -15 c8 -8 12 -60 12 -170 l0 -158 -26
-10 c-31 -12 -94 -13 -112 -2 -9 7 -12 48 -10 172 l3 164 25 7 c41 11 95 10
108 -3z m-3108 -54 c0 -24 -4 -44 -10 -44 -5 0 -10 23 -10 51 0 31 4 48 10 44
6 -3 10 -26 10 -51z m148 40 c12 -4 22 -13 22 -20 0 -10 -16 -14 -60 -14 -45
0 -60 3 -60 14 0 21 52 32 98 20z m-628 -64 c0 -27 -2 -29 -24 -20 -13 5 -48
9 -78 9 -43 -1 -58 -5 -81 -27 -31 -30 -51 -89 -41 -127 6 -24 4 -26 -17 -23
-31 4 -37 54 -14 113 29 76 79 105 183 105 l72 0 0 -30z m410 8 c0 -21 -2 -21
-125 -15 -82 4 -124 3 -120 -3 3 -6 -1 -10 -9 -10 -9 0 -16 3 -16 8 0 4 -18 6
-40 4 -35 -4 -40 -2 -40 17 0 21 4 21 175 21 173 0 175 0 175 -22z m-526 -85
c-9 -15 -23 -46 -30 -68 l-13 -40 0 45 c-1 49 20 90 46 90 13 0 13 -4 -3 -27z
m681 7 c4 -6 11 -8 16 -4 7 4 9 -7 7 -26 -2 -23 -10 -35 -25 -41 -22 -8 -23
-6 -23 36 0 42 11 58 25 35z m-88 -42 c11 -9 12 -13 1 -19 -17 -11 -568 -12
-568 -1 0 4 4 12 10 18 14 14 540 16 557 2z m-803 -98 c-10 -45 13 -88 58
-111 48 -24 46 -32 -5 -18 -51 14 -77 51 -77 110 0 37 4 49 15 49 11 0 13 -8
9 -30z m164 -25 c10 -10 -5 -16 -57 -22 -48 -5 -51 -5 -51 17 0 22 3 22 51 17
29 -4 54 -9 57 -12z m527 5 c-3 -5 -15 -10 -26 -10 -11 0 -17 5 -14 10 3 6 15
10 26 10 11 0 17 -4 14 -10z m-414 -13 c18 5 20 2 17 -38 -3 -40 -5 -44 -28
-41 -37 5 -41 13 -28 57 6 22 13 35 15 29 2 -7 13 -10 24 -7z m-1121 -141
c252 -46 891 -70 1053 -40 24 5 27 3 27 -24 l0 -29 -104 -7 c-57 -4 -148 -6
-202 -6 -55 1 -108 -1 -118 -6 -24 -9 -403 12 -556 32 -149 19 -234 37 -292
63 -44 18 -48 23 -48 54 l0 34 78 -27 c43 -16 116 -35 162 -44z m1558 32 c-4
-27 -53 -54 -116 -64 -41 -6 -42 -6 -34 17 7 17 26 29 73 45 81 28 81 28 77 2z
m3176 -4 c24 -9 21 -71 -3 -84 -46 -24 -91 -6 -91 36 0 43 47 66 94 48z
m-3606 -71 c-16 -4 -22 -15 -19 -35 0 -5 -3 -8 -9 -8 -5 0 -10 11 -10 25 0 21
5 25 28 24 16 -1 20 -3 10 -6z m-1178 -103 l42 -11 -6 -90 c-5 -75 -3 -89 9
-89 34 0 12 -19 -29 -25 -82 -13 -81 -15 -84 119 -2 101 0 118 12 113 8 -3 33
-11 56 -17z m1480 -89 c0 -49 3 -96 6 -105 4 -12 0 -16 -16 -16 -22 0 -23 2
-16 61 3 34 6 82 6 105 0 24 5 44 10 44 6 0 10 -36 10 -89z m-133 71 c8 -5 13
-42 15 -102 l3 -95 -32 -3 -33 -3 0 99 c0 54 3 102 7 105 8 9 25 9 40 -1z
m-1227 -97 c0 -57 -4 -95 -10 -95 -6 0 -10 38 -10 95 0 57 4 95 10 95 6 0 10
-38 10 -95z m4684 89 c14 -5 16 -31 16 -180 l0 -173 -33 -6 c-18 -4 -51 -5
-72 -3 l-40 3 -3 177 c-2 162 -1 177 15 181 28 7 100 8 117 1z m-3944 -27
c347 -1 341 -10 -15 -22 -131 -5 -277 -3 -390 4 -245 16 -300 32 -85 25 91 -3
311 -6 490 -7z"/>
<path d="M7043 5863 c15 -2 37 -2 50 0 12 2 0 4 -28 4 -27 0 -38 -2 -22 -4z"/>
<path d="M7035 5674 c48 -8 115 -9 115 -2 0 5 -30 7 -67 7 -38 -1 -59 -3 -48
-5z"/>
<path d="M4905 5573 c-11 -3 -32 -17 -47 -31 l-28 -26 0 -390 0 -390 43 -38
42 -39 738 0 c664 -1 740 0 762 15 14 9 27 27 31 40 3 13 4 198 2 410 l-3 388
-33 29 -32 29 -699 0 c-384 0 -711 2 -727 4 -16 2 -38 2 -49 -1z m1445 -78
c10 -12 14 -102 18 -362 5 -327 4 -347 -13 -360 -27 -19 -1440 -20 -1452 0
-12 18 -3 709 9 725 8 9 164 12 718 12 625 0 709 -2 720 -15z m-1037 -822
c-13 -2 -33 -2 -45 0 -13 2 -3 4 22 4 25 0 35 -2 23 -4z m170 0 c-13 -2 -35
-2 -50 0 -16 2 -5 4 22 4 28 0 40 -2 28 -4z m590 0 c-29 -2 -77 -2 -105 0 -29
2 -6 3 52 3 58 0 81 -1 53 -3z"/>
<path d="M4942 5472 c-9 -7 -12 -81 -10 -338 l3 -329 696 -3 697 -2 7 142 c8
172 3 508 -8 526 -6 9 -155 12 -690 12 -375 0 -688 -4 -695 -8z m231 -95 l22
-39 -28 -24 c-35 -30 -52 -30 -72 -1 -14 22 -13 27 7 65 13 23 29 41 36 40 7
-2 23 -20 35 -41z m-113 17 c0 -10 -6 -14 -14 -11 -9 4 -16 -4 -20 -24 -12
-64 38 -119 109 -119 37 0 48 5 74 35 34 39 39 71 16 101 -8 10 -15 23 -15 27
0 13 1061 6 1065 -7 2 -6 5 -50 7 -99 l3 -87 -625 0 c-344 0 -634 3 -646 6
-18 5 -21 14 -23 100 l-2 94 35 0 c26 0 36 -4 36 -16z m1220 -344 c0 -52 -3
-118 -6 -146 l-6 -51 -47 5 c-25 3 -49 9 -52 15 -4 5 -9 5 -13 -2 -10 -16
-116 -14 -120 2 -10 31 -13 85 -6 96 4 7 26 14 49 15 44 3 70 16 30 16 -39 0
-69 11 -69 25 0 17 23 25 67 25 20 0 34 2 31 5 -3 3 -63 6 -132 6 -99 0 -128
3 -132 14 -4 11 -10 9 -26 -7 -11 -11 -17 -22 -14 -25 3 -3 43 -5 90 -4 88 2
116 -10 82 -35 -15 -10 -15 -15 -5 -33 17 -27 11 -31 -56 -38 -67 -7 -55 -23
18 -23 44 0 48 -2 45 -22 -3 -21 -9 -23 -63 -26 l-61 -3 -12 36 c-13 34 -14
35 -68 35 -30 0 -54 -4 -54 -10 0 -5 25 -10 55 -10 49 0 55 -2 55 -20 0 -23
-6 -26 -72 -34 l-47 -5 -3 37 -3 37 -62 3 c-39 2 -63 -1 -63 -8 0 -5 22 -10
50 -10 43 0 50 -3 50 -20 0 -11 -5 -20 -11 -20 -6 0 -8 -7 -5 -16 5 -14 1 -16
-25 -10 -17 3 -42 6 -55 6 -23 0 -24 3 -24 65 l0 65 59 0 c52 0 59 -2 65 -22
l7 -23 11 23 c9 17 19 22 51 22 48 0 42 11 -10 19 -25 4 -39 12 -41 24 -3 13
4 17 32 17 51 0 54 18 4 22 -38 3 -43 6 -40 26 3 19 -1 22 -30 21 -18 -1 -25
-3 -15 -6 9 -2 17 -13 17 -24 0 -16 -7 -19 -56 -19 -42 0 -60 4 -69 17 -12 16
-14 16 -29 0 -11 -11 -33 -17 -62 -17 -41 0 -45 2 -50 30 -8 35 -21 39 -26 8
-2 -15 -11 -24 -25 -26 -28 -4 -30 -19 -3 -27 23 -7 26 -25 8 -43 -16 -16 -50
-15 -74 3 -19 15 -19 15 4 34 29 25 28 31 -6 31 -15 0 -33 5 -39 11 -8 8 -17
6 -33 -9 -21 -19 -21 -21 -3 -30 26 -16 5 -45 -38 -53 l-34 -6 36 -2 c22 0 39
-7 43 -16 8 -23 -23 -46 -58 -43 -29 3 -31 6 -30 38 1 28 -3 36 -17 37 -22 2
-33 -44 -27 -107 3 -38 2 -40 -23 -40 -25 0 -26 2 -32 83 -4 45 -7 111 -7 147
l0 65 615 0 615 0 0 -95z m-739 -10 c25 -14 24 -27 -2 -41 -31 -16 -89 -3 -89
21 0 17 14 24 58 29 7 0 22 -4 33 -9z m169 -7 c2 -2 -1 -12 -7 -21 -20 -31
-122 -15 -123 20 0 14 113 15 130 1z m-152 -80 c3 -22 0 -23 -53 -23 -35 0
-54 -4 -50 -10 3 -5 26 -10 50 -10 47 0 67 -22 37 -39 -16 -10 -16 -10 1 -11
10 0 15 -5 12 -11 -8 -13 -107 -2 -116 13 -4 6 -3 25 1 43 4 18 6 44 3 57 -4
23 -3 23 54 18 51 -4 58 -8 61 -27z m-160 1 c4 -27 -19 -37 -64 -28 -23 4 -34
12 -34 23 0 27 11 32 55 29 32 -2 41 -7 43 -24z m-158 -74 c0 -28 -2 -30 -40
-30 -27 0 -43 5 -46 15 -12 30 4 45 46 45 38 0 40 -2 40 -30z m158 -2 c3 -27
2 -28 -47 -28 -54 0 -66 9 -56 41 6 17 14 20 53 17 43 -3 47 -5 50 -30z m567
-38 c-28 -12 -47 -12 -40 0 3 6 18 10 33 9 24 0 25 -1 7 -9z m143 -7 c-16 -2
-40 -2 -55 0 -16 2 -3 4 27 4 30 0 43 -2 28 -4z"/>
<path d="M6153 5365 c-17 -12 -23 -26 -23 -54 0 -44 14 -61 50 -61 40 0 64 32
57 76 -7 43 -5 41 -37 49 -16 3 -34 0 -47 -10z m57 -71 c-14 -16 -36 -18 -45
-4 -3 6 1 7 10 4 11 -5 19 3 27 27 11 30 13 32 16 11 2 -13 -2 -30 -8 -38z
m-25 36 c-3 -5 -11 -10 -16 -10 -6 0 -7 5 -4 10 3 6 11 10 16 10 6 0 7 -4 4
-10z"/>
<path d="M5163 5063 c-23 -9 -14 -25 10 -18 31 10 45 25 22 24 -11 0 -26 -3
-32 -6z"/>
<path d="M5853 5003 c-13 -3 -23 -9 -23 -14 0 -10 14 -12 80 -9 43 2 58 6 49
14 -8 6 -84 13 -106 9z"/>
<path d="M6147 5004 c-8 -8 1 -24 14 -24 5 0 9 7 9 15 0 15 -12 20 -23 9z"/>
<path d="M6060 4920 c20 -13 100 -13 100 0 0 6 -26 10 -57 10 -41 0 -54 -3
-43 -10z"/>
<path d="M5060 4549 c-27 -50 -32 -49 583 -47 537 3 570 4 581 21 9 15 7 21
-8 33 -17 12 -108 14 -583 14 -558 0 -562 0 -573 -21z"/>
<path d="M6047 4342 c-20 -4 -39 -44 -31 -66 3 -7 16 -18 30 -25 22 -9 28 -8
50 14 20 20 23 29 14 45 -13 24 -39 38 -63 32z"/>
<path d="M5128 4316 c-14 -31 -5 -53 27 -68 21 -9 28 -8 45 7 39 35 20 85 -32
85 -20 0 -32 -7 -40 -24z"/>
<path d="M5437 4333 c-4 -3 -7 -19 -7 -34 0 -37 39 -65 69 -50 48 26 32 91
-23 91 -18 0 -36 -3 -39 -7z"/>
<path d="M5731 4318 c-20 -52 54 -89 85 -43 12 18 11 24 -2 43 -21 30 -71 30
-83 0z"/>
<path d="M6320 4326 c-18 -23 -8 -59 22 -75 24 -14 28 -14 47 3 23 21 27 56 9
74 -17 17 -63 15 -78 -2z"/>
<path d="M4853 4063 c9 -2 25 -2 35 0 9 3 1 5 -18 5 -19 0 -27 -2 -17 -5z"/>
<path d="M6210 3997 c-53 -17 -133 -102 -149 -160 -25 -89 1 -180 72 -249 42
-40 129 -78 180 -78 44 0 130 44 163 83 46 54 77 133 72 182 -11 94 -93 198
-176 223 -47 14 -114 14 -162 -1z m175 -77 c42 -26 85 -105 85 -156 0 -49 -40
-115 -84 -137 -95 -49 -200 -22 -243 63 -47 92 -18 191 70 235 62 31 116 30
172 -5z"/>
<path d="M6232 3890 c-64 -39 -89 -118 -57 -179 42 -82 134 -106 208 -55 61
41 74 108 34 178 -40 70 -121 95 -185 56z m92 -36 c9 -4 22 -16 28 -28 10 -19
10 -20 -5 -7 -10 7 -17 11 -17 8 0 -3 -3 -14 -6 -24 -5 -15 -4 -16 6 -3 9 12
10 6 8 -27 -2 -24 -2 -43 -1 -43 2 0 9 15 17 33 14 32 14 32 15 5 1 -33 -34
-75 -70 -83 -21 -5 -32 0 -57 30 -41 46 -41 79 -1 116 31 29 53 35 83 23z"/>
<path d="M6276 3774 c-11 -8 -16 -14 -10 -14 13 0 39 18 34 24 -3 2 -14 -2
-24 -10z"/>
<path d="M4738 3875 c-59 -40 -75 -115 -36 -171 31 -44 84 -68 133 -58 88 16
128 100 86 182 -37 73 -115 93 -183 47z m106 -46 c22 -17 26 -27 21 -48 -10
-39 -35 -61 -70 -61 -63 0 -83 62 -35 110 26 26 51 25 84 -1z"/>
<path d="M4785 3799 c-4 -6 -5 -12 -2 -15 2 -3 7 2 10 11 7 17 1 20 -8 4z"/>
<path d="M5190 3887 c-13 -7 -35 -28 -48 -47 -31 -45 -26 -105 12 -155 25 -33
31 -35 82 -35 68 0 107 21 130 68 37 77 -35 182 -123 182 -15 0 -39 -6 -53
-13z m88 -59 c15 -13 16 -49 0 -83 -14 -31 -59 -34 -88 -5 -27 27 -25 56 5 86
26 25 52 26 83 2z"/>
<path d="M5630 3882 c-21 -10 -42 -32 -54 -55 -26 -53 -15 -100 35 -150 39
-39 40 -40 97 -34 76 8 112 44 112 113 0 110 -95 174 -190 126z m91 -60 c28
-25 31 -32 22 -58 -23 -71 -115 -65 -121 8 -2 27 3 43 17 57 28 28 45 26 82
-7z"/>
<path d="M6484 3578 l-19 -23 23 19 c12 11 22 21 22 23 0 8 -8 2 -26 -19z"/>
<path d="M6023 3455 c-41 -17 -46 -43 -41 -205 l3 -122 45 -38 45 -38 168 -1
c181 -2 231 6 274 43 27 24 28 27 32 146 3 131 -12 200 -49 220 -30 16 -438
12 -477 -5z m437 -169 c0 -95 -3 -115 -16 -120 -25 -10 -358 -7 -373 3 -12 7
-15 33 -14 109 0 54 3 104 7 111 5 8 66 11 202 11 l194 0 0 -114z m-272 -213
c-10 -2 -28 -2 -40 0 -13 2 -5 4 17 4 22 1 32 -1 23 -4z m209 1 c-3 -3 -12 -4
-19 -1 -8 3 -5 6 6 6 11 1 17 -2 13 -5z"/>
<path d="M6391 3361 c-9 -6 -10 -24 -5 -71 l7 -63 -147 6 c-141 6 -146 6 -146
-14 0 -19 6 -19 163 -17 l162 3 3 71 c3 73 -9 102 -37 85z"/>
<path d="M6099 3353 c-2 -16 3 -98 6 -101 1 -2 14 0 29 4 24 6 38 34 16 34 -5
0 -10 11 -10 25 0 21 5 25 32 25 17 0 29 2 27 4 -9 8 -99 17 -100 9z"/>
<path d="M4754 3420 c-11 -4 -34 -24 -52 -44 -57 -65 -40 -157 39 -212 72 -50
149 -36 197 36 19 28 23 43 18 79 -15 110 -112 178 -202 141z m83 -62 c41 -28
48 -48 33 -93 -20 -61 -92 -76 -129 -29 -28 36 -26 76 5 113 31 37 47 38 91 9z"/>
<path d="M4765 3303 l-17 -28 23 22 c12 12 20 25 17 28 -3 3 -13 -7 -23 -22z"/>
<path d="M5135 3418 c-99 -55 -110 -170 -22 -242 74 -60 159 -54 210 15 65 90
-14 240 -127 239 -23 0 -50 -6 -61 -12z m102 -72 c37 -33 37 -34 25 -75 -20
-66 -83 -83 -127 -35 -32 35 -32 74 1 113 33 40 56 39 101 -3z"/>
<path d="M5171 3314 c-17 -14 -31 -31 -31 -37 0 -6 15 3 33 20 17 17 39 33 47
36 12 4 12 6 -2 6 -9 1 -30 -11 -47 -25z"/>
<path d="M5535 3414 c-95 -47 -99 -181 -8 -250 69 -53 162 -37 210 35 29 43
29 95 0 146 -44 77 -129 106 -202 69z m106 -57 c42 -28 48 -68 19 -115 -19
-31 -24 -33 -67 -30 -42 3 -48 6 -66 41 -17 32 -17 42 -7 68 14 33 45 59 71
59 9 0 31 -10 50 -23z"/>
<path d="M5565 3310 c-27 -30 -12 -34 15 -5 13 14 19 25 13 25 -5 0 -18 -9
-28 -20z"/>
<path d="M7026 5248 c-13 -52 -8 -65 31 -71 20 -4 40 -4 45 -1 4 3 8 25 8 50
l0 44 -39 0 c-32 0 -40 -4 -45 -22z m74 8 c0 -3 -4 -8 -10 -11 -5 -3 -10 -1
-10 4 0 6 5 11 10 11 6 0 10 -2 10 -4z"/>
<path d="M3481 5004 c0 -11 3 -14 6 -6 3 7 2 16 -1 19 -3 4 -6 -2 -5 -13z"/>
<path d="M7030 4900 l0 -50 40 0 40 0 -1 48 c0 26 -3 41 -6 35 -2 -7 -9 -13
-14 -13 -4 0 -6 7 -3 15 5 11 -1 15 -25 15 -31 0 -31 -1 -31 -50z"/>
<path d="M2968 4669 c-42 -22 -69 -65 -71 -115 -2 -32 -4 -34 -40 -34 -54 0
-92 -23 -122 -73 -30 -53 -31 -85 -5 -137 27 -52 67 -73 136 -68 55 3 62 0 43
-19 -17 -17 -13 -99 7 -133 10 -17 37 -40 61 -51 36 -17 47 -19 83 -9 22 6 55
24 72 39 27 24 32 36 36 90 3 35 0 66 -6 74 -9 10 1 12 51 9 102 -5 147 35
147 134 0 39 -5 51 -42 90 -37 38 -50 45 -94 51 -44 5 -51 8 -47 24 8 29 -35
106 -71 129 -42 25 -90 25 -138 -1z m112 -64 c12 -13 12 -15 0 -15 -11 0 -11
-3 -2 -12 33 -33 -4 -88 -59 -88 -57 0 -84 85 -38 122 26 22 73 18 99 -7z
m-196 -161 c26 -26 34 -48 29 -77 -6 -31 -43 -59 -43 -32 0 11 -6 14 -25 9
-19 -5 -25 -2 -25 11 0 9 -5 13 -11 9 -6 -3 -8 -16 -5 -28 5 -20 4 -20 -15 3
-40 49 -13 121 46 121 18 0 41 -7 49 -16z m384 -20 c27 -31 28 -50 2 -91 -16
-28 -26 -33 -56 -33 -28 0 -35 3 -30 15 3 8 0 14 -6 12 -16 -3 -33 63 -24 96
11 44 74 45 114 1z m-208 -7 c9 -7 22 -26 29 -44 20 -49 -7 -82 -72 -88 -28
-3 -60 50 -53 87 3 17 11 37 17 45 14 16 59 17 79 0z m23 -214 c4 -2 7 -19 7
-37 0 -45 -28 -68 -76 -64 -34 3 -40 7 -53 41 -13 34 -12 39 4 57 16 17 26 20
64 14 25 -4 49 -8 54 -11z"/>
<path d="M3195 4370 c-18 -20 -16 -38 3 -26 8 5 24 46 18 46 -2 0 -11 -9 -21
-20z"/>
<path d="M2990 4319 c0 -15 18 -19 23 -6 3 8 -1 14 -9 14 -8 0 -14 -4 -14 -8z"/>
<path d="M3206 4585 c6 -31 11 -41 18 -34 2 2 -2 18 -10 34 l-14 30 6 -30z"/>
<path d="M3390 4365 c0 -83 -46 -139 -132 -161 l-53 -14 47 4 c63 5 116 39
139 90 20 44 25 111 9 121 -6 4 -10 -12 -10 -40z"/>
<path d="M2771 4214 c20 -19 82 -37 77 -22 -2 6 -24 17 -48 24 -38 11 -41 11
-29 -2z"/>
<path d="M3205 4130 c-9 -51 -38 -88 -89 -111 -51 -23 -107 -24 -149 -3 -31
16 -31 15 -15 -2 12 -12 37 -19 77 -22 52 -4 67 -1 106 22 25 15 53 38 61 52
19 28 36 104 24 104 -5 0 -11 -18 -15 -40z"/>
<path d="M7022 4543 c3 -48 3 -48 41 -51 l37 -3 0 50 0 51 -41 0 -40 0 3 -47z"/>
<path d="M7040 4254 c-10 -3 -15 -19 -17 -54 l-1 -50 43 0 43 0 -5 43 c-8 70
-12 74 -63 61z m50 -84 c0 -5 -5 -10 -11 -10 -5 0 -7 5 -4 10 3 6 8 10 11 10
2 0 4 -4 4 -10z"/>
<path d="M7023 3778 l2 -133 40 0 40 0 3 133 3 132 -45 0 -45 0 2 -132z"/>
<path d="M7024 3209 c3 -34 6 -100 6 -146 l0 -84 38 3 37 3 0 140 0 140 -44 3
-44 3 7 -62z"/>
<path d="M7408 6154 c12 -17 26 -51 31 -75 15 -64 15 -3450 0 -3504 -6 -22
-25 -60 -42 -85 -24 -35 -25 -41 -8 -26 27 25 58 32 40 10 -10 -12 -9 -13 4
-8 20 7 57 69 57 94 0 24 -27 34 -34 12 -3 -9 -3 2 0 26 8 58 11 3111 4 3340
l-6 182 -33 33 -34 32 21 -31z"/>
<path d="M1320 2133 c-32 -22 -42 -35 -84 -103 -18 -30 -57 -93 -86 -140 -29
-47 -75 -123 -103 -170 -27 -47 -85 -140 -129 -207 -43 -67 -78 -124 -78 -127
0 -3 22 -6 49 -6 48 0 50 1 76 48 15 26 56 92 90 147 34 55 112 181 174 281
61 99 122 190 134 202 l23 22 2944 -2 2944 -3 36 -48 c20 -26 85 -129 145
-230 60 -100 134 -221 165 -269 30 -48 64 -102 75 -120 19 -30 25 -33 60 -30
22 2 42 6 44 8 2 2 -32 61 -76 131 -44 70 -121 196 -170 278 -163 271 -189
310 -223 333 l-33 22 -2976 0 c-2788 0 -2978 -1 -3001 -17z"/>
<path d="M1594 2022 l-120 -3 -12 -33 c-7 -18 -28 -50 -47 -72 -21 -23 -32
-31 -28 -19 9 27 43 86 61 108 13 15 13 17 -1 17 -9 0 -29 -19 -44 -42 -14
-24 -37 -59 -50 -79 -13 -19 -23 -38 -23 -42 0 -4 71 -6 158 -5 l157 3 39 76
c21 42 37 80 35 85 -2 5 -58 8 -125 6z"/>
<path d="M1794 1978 c-15 -29 -37 -70 -50 -90 -13 -21 -24 -40 -24 -43 0 -3
20 -5 45 -5 l46 0 39 82 c22 45 40 88 40 95 0 8 -13 13 -35 13 -32 0 -37 -4
-61 -52z"/>
<path d="M1966 1946 c-26 -48 -46 -89 -44 -91 1 -2 59 -5 127 -6 l124 -3 35
82 c19 46 33 85 31 87 -3 2 -54 7 -115 11 l-111 7 -47 -87z m65 50 c-6 -7 -12
-26 -13 -42 -2 -31 -15 -54 -29 -54 -13 0 -11 14 11 64 10 25 25 46 31 46 8 0
9 -3 0 -14z m135 -18 c-18 -26 -22 -17 -5 14 6 11 13 17 16 15 3 -3 -2 -16
-11 -29z"/>
<path d="M2340 1969 c-16 -33 -36 -69 -45 -82 -8 -12 -15 -25 -15 -29 0 -5
116 -8 258 -8 l259 0 13 28 c21 46 50 135 46 140 -3 2 -113 6 -246 7 l-240 3
-30 -59z m55 -11 c-28 -50 -65 -89 -52 -55 4 10 7 22 7 26 0 15 64 95 67 85 2
-6 -8 -31 -22 -56z m242 46 c-3 -3 -12 -4 -19 -1 -8 3 -5 6 6 6 11 1 17 -2 13
-5z"/>
<path d="M3075 2022 l-100 -3 -36 -84 -37 -85 321 2 321 3 18 70 c10 39 17 76
15 84 -2 11 -39 14 -202 15 -110 1 -245 0 -300 -2z m-37 -19 c-31 -66 -54
-103 -65 -103 -7 0 -13 2 -13 5 0 15 29 73 44 88 17 17 41 24 34 10z"/>
<path d="M3671 1955 c-11 -41 -24 -81 -27 -89 -5 -14 12 -16 144 -16 l151 0 7
38 c4 20 8 60 8 87 l1 50 -131 2 -131 2 -22 -74z m167 48 c-21 -2 -57 -2 -80
0 -24 2 -7 4 37 4 44 0 63 -2 43 -4z m-98 -31 c0 -22 -26 -59 -35 -50 -6 6 21
68 30 68 3 0 5 -8 5 -18z"/>
<path d="M4066 2022 c-3 -5 -8 -46 -12 -90 l-7 -82 192 0 c146 0 191 3 191 13
-1 6 -9 46 -18 87 l-18 75 -149 1 -150 0 135 -6 135 -6 -132 -2 c-79 -1 -134
2 -138 8 -8 12 -22 13 -29 2z m31 -79 c-3 -10 -5 -4 -5 12 0 17 2 24 5 18 2
-7 2 -21 0 -30z"/>
<path d="M4537 2022 c-30 -3 -37 -7 -33 -20 3 -9 10 -47 17 -84 l11 -68 263 0
263 0 -33 88 -32 87 -209 0 c-115 0 -226 -1 -247 -3z m351 -9 c-38 -2 -98 -2
-135 0 -38 2 -7 3 67 3 74 0 105 -1 68 -3z m-331 -35 c-3 -7 -5 -2 -5 12 0 14
2 19 5 13 2 -7 2 -19 0 -25z m50 26 c-3 -3 -12 -4 -19 -1 -8 3 -5 6 6 6 11 1
17 -2 13 -5z"/>
<path d="M5228 2023 c-65 -2 -118 -7 -118 -11 0 -4 10 -41 23 -82 l23 -75 258
-5 c142 -3 259 -4 261 -2 4 4 -32 97 -56 143 l-19 39 -128 -2 c-70 -1 -180 -4
-244 -5z"/>
<path d="M5727 2024 c-5 -6 41 -156 51 -166 4 -3 76 -9 160 -11 178 -6 171
-12 114 103 l-37 75 -112 3 c-68 2 -113 -1 -113 -7 0 -6 -11 -6 -29 -1 -16 4
-32 6 -34 4z m146 -11 c-13 -2 -35 -2 -50 0 -16 2 -5 4 22 4 28 0 40 -2 28 -4z
m100 0 c-7 -2 -19 -2 -25 0 -7 3 -2 5 12 5 14 0 19 -2 13 -5z"/>
<path d="M6140 2018 c0 -4 14 -43 31 -87 l32 -80 266 -3 c146 -2 268 -2 270
-1 1 1 -19 41 -47 90 l-50 88 -251 0 c-138 0 -251 -3 -251 -7z m403 -5 c-34
-2 -93 -2 -130 0 -37 2 -9 3 62 3 72 0 102 -1 68 -3z m-343 -19 c0 -8 -5 -12
-10 -9 -6 4 -8 11 -5 16 9 14 15 11 15 -7z m47 10 c-3 -3 -12 -4 -19 -1 -8 3
-5 6 6 6 11 1 17 -2 13 -5z"/>
<path d="M6770 2021 c0 -10 50 -127 66 -154 9 -16 29 -17 248 -15 l237 3 -53
85 -53 85 -188 0 c-182 0 -187 -1 -181 -20 4 -18 4 -18 -8 -4 -15 18 -68 34
-68 20z m308 -18 c-32 -2 -84 -2 -115 0 -32 2 -6 3 57 3 63 0 89 -1 58 -3z"/>
<path d="M1274 1763 c-9 -16 -34 -54 -56 -85 l-39 -58 436 0 436 0 25 57 c14
31 28 69 31 85 l6 28 -412 0 -411 0 -16 -27z m66 3 c0 -16 -64 -96 -76 -96
-17 0 -6 25 30 72 18 23 46 37 46 24z"/>
<path d="M2201 1711 c-23 -44 -41 -82 -41 -86 0 -3 89 -4 197 -3 l198 3 22 55
c11 30 23 66 25 80 l3 25 -181 3 -182 2 -41 -79z m69 5 c-17 -25 -37 -46 -45
-46 -20 0 -8 32 27 74 44 53 58 31 18 -28z"/>
<path d="M2699 1713 c-19 -42 -35 -80 -37 -85 -2 -4 109 -8 246 -8 l249 0 22
73 c11 39 21 78 21 85 0 9 -53 12 -233 12 l-233 0 -35 -77z m63 7 c-13 -27
-31 -50 -38 -50 -11 0 -8 13 11 50 14 28 31 50 39 50 9 0 6 -14 -12 -50z"/>
<path d="M3309 1743 c-9 -27 -24 -65 -33 -85 l-16 -38 254 0 255 0 11 54 c6
29 12 66 13 82 l2 29 -235 3 -235 2 -16 -47z m66 20 c-4 -10 -12 -31 -17 -48
-12 -35 -35 -62 -44 -52 -11 11 37 117 53 117 10 0 13 -5 8 -17z"/>
<path d="M3887 1715 c-10 -42 -17 -80 -17 -85 0 -6 56 -10 140 -10 l140 0 0
24 c0 12 3 51 6 85 l7 61 -130 0 -130 0 -16 -75z m40 33 c-3 -8 -6 -5 -6 6 -1
11 2 17 5 13 3 -3 4 -12 1 -19z"/>
<path d="M4228 1705 l-3 -85 49 0 49 0 -7 46 c-3 26 -6 64 -6 85 0 39 0 39
-39 39 l-40 0 -3 -85z"/>
<path d="M4393 1776 c3 -8 9 -46 13 -85 l7 -71 164 0 165 0 -7 32 c-4 17 -15
54 -25 82 l-17 51 -153 3 c-128 2 -151 0 -147 -12z m215 -3 c-32 -2 -84 -2
-115 0 -32 2 -6 3 57 3 63 0 89 -1 58 -3z"/>
<path d="M4800 1787 c0 -9 40 -161 44 -164 1 -2 143 -2 313 -1 l311 3 -32 80
-31 80 -302 3 c-167 1 -303 1 -303 -1z m60 -33 c0 -8 -4 -12 -10 -9 -5 3 -10
10 -10 16 0 5 5 9 10 9 6 0 10 -7 10 -16z"/>
<path d="M5520 1784 c0 -4 12 -42 27 -85 l26 -78 201 -3 c111 -2 202 -3 203
-2 3 0 -36 102 -54 142 l-15 32 -194 0 c-107 0 -194 -3 -194 -6z"/>
<path d="M6025 1773 c4 -10 18 -48 32 -85 l25 -67 187 -3 c102 -2 187 -2 189
-2 2 1 -16 40 -40 88 l-42 86 -179 0 c-167 0 -179 -1 -172 -17z m98 0 c-7 -2
-21 -2 -30 0 -10 3 -4 5 12 5 17 0 24 -2 18 -5z"/>
<path d="M6527 1723 c14 -38 28 -76 30 -85 5 -16 38 -18 454 -20 295 -2 449 0
449 7 0 6 -23 45 -50 88 l-50 77 -429 0 -430 0 26 -67z m39 38 c0 -11 -4 -17
-8 -15 -4 3 -8 12 -8 20 0 8 4 14 8 14 4 0 8 -9 8 -19z"/>
<path d="M1628 1562 c-56 -2 -88 -7 -88 -14 0 -6 -20 -44 -45 -86 -25 -41 -45
-76 -45 -78 0 -3 116 -3 257 -2 l257 3 33 84 c18 47 31 86 30 87 -4 4 -313 9
-399 6z m-28 -19 c-1 -17 -56 -107 -67 -111 -22 -7 -14 21 20 70 29 44 47 59
47 41z"/>
<path d="M2167 1562 c-20 -2 -31 -11 -38 -30 -6 -15 -23 -53 -40 -84 -16 -31
-29 -60 -29 -63 0 -3 94 -5 209 -5 190 0 210 2 216 18 9 21 55 154 55 158 0 5
-341 10 -373 6z m33 -16 c0 -21 -53 -116 -65 -116 -18 0 -19 10 -3 47 21 47
40 73 54 73 8 0 14 -2 14 -4z"/>
<path d="M2711 1560 c-48 -4 -56 -8 -62 -30 -3 -14 -18 -51 -33 -84 -14 -32
-26 -60 -26 -62 0 -2 116 -4 259 -4 l258 0 22 73 c36 122 51 112 -172 112
-105 0 -216 -2 -246 -5z m9 -14 c0 -2 -11 -29 -25 -60 -24 -54 -45 -73 -45
-41 0 25 44 104 58 105 6 0 12 -2 12 -4z"/>
<path d="M3272 1555 c-4 -5 -21 -46 -38 -90 l-31 -80 1100 -3 c605 -1 1102 -1
1103 1 5 5 -54 159 -64 169 -12 12 -2062 15 -2070 3z m40 -58 c-20 -52 -38
-75 -49 -63 -9 9 25 108 41 118 22 14 25 -9 8 -55z"/>
<path d="M5455 1562 c-1 -1 10 -42 25 -90 l27 -87 268 -3 267 -2 -6 26 c-4 14
-21 55 -39 91 l-32 66 -253 1 c-140 0 -255 0 -257 -2z"/>
<path d="M6083 1555 c3 -5 17 -47 32 -92 l28 -83 188 0 c103 0 194 -3 203 -6
25 -10 19 14 -27 106 l-42 85 -193 0 c-128 1 -191 -3 -189 -10z"/>
<path d="M6613 1475 l41 -95 53 0 c36 0 53 4 53 13 -1 6 -20 48 -43 92 l-42
80 -51 3 -52 3 41 -96z"/>
<path d="M7082 1563 c-162 -2 -292 -7 -290 -11 2 -4 19 -44 37 -89 l35 -83
368 0 c202 0 368 3 368 8 0 11 -79 144 -97 165 -12 13 -29 16 -72 15 -31 -2
-188 -4 -349 -5z"/>
<path d="M1105 1482 c-27 -42 -51 -83 -53 -89 -3 -10 30 -13 137 -13 l141 0
34 68 c18 37 37 77 40 90 l7 22 -128 0 -128 0 -50 -78z m105 64 c0 -11 -31
-61 -54 -87 -25 -28 -46 -38 -46 -22 0 17 73 113 86 113 8 0 14 -2 14 -4z"/>
<path d="M3111 1163 c-61 -176 -105 -293 -112 -293 -7 0 6 48 31 118 7 18 10
35 8 38 -3 2 -18 -32 -33 -77 -22 -67 -25 -83 -14 -90 8 -5 619 -9 1362 -9
l1349 0 -7 33 c-4 17 -34 109 -67 202 l-59 170 -1212 3 -1213 4 -33 -99z
m2379 17 c5 0 10 -6 10 -12 0 -10 -52 -13 -228 -12 -125 0 -230 -1 -234 -3
-10 -5 27 -98 63 -155 l29 -48 -999 0 -999 0 24 78 c13 42 29 94 34 114 l11
37 102 3 c56 2 569 2 1139 1 571 -2 1042 -3 1048 -3z m-255 -217 c25 4 47 2
50 -3 4 -6 -23 -10 -71 -10 -67 0 -75 2 -64 15 10 12 16 13 26 4 9 -7 31 -9
59 -6z"/>
<path d="M3171 1014 c0 -11 3 -14 6 -6 3 7 2 16 -1 19 -3 4 -6 -2 -5 -13z"/>
<path d="M3081 1178 c-31 -101 -33 -108 -28 -108 7 0 60 171 54 176 -2 2 -14
-28 -26 -68z"/>
<path d="M7180 673 c0 -5 33 -7 72 -5 132 5 145 9 36 10 -60 1 -108 -1 -108
-5z"/>
<path d="M7946 2010 c15 -25 60 -97 99 -160 155 -254 240 -389 243 -385 10 9
-317 538 -355 575 -8 8 -3 -5 13 -30z"/>
<path d="M8539 213 c-13 -16 -12 -17 4 -4 9 7 17 15 17 17 0 8 -8 3 -21 -13z"/>
<path d="M8470 139 c-30 -28 -46 -46 -35 -41 19 10 104 93 95 92 -3 -1 -30
-24 -60 -51z"/>
<path d="M340 50 c8 -5 22 -9 30 -9 10 0 8 3 -5 9 -27 12 -43 12 -25 0z"/>
</g>
</svg>
